<svg xmlns="http://www.w3.org/2000/svg" xmlns:xlink="http://www.w3.org/1999/xlink" width="1920" zoomAndPan="magnify" viewBox="0 0 1440 809.999993" height="1080" preserveAspectRatio="xMidYMid meet" version="1.0"><defs><g/></defs><g fill="#272727" fill-opacity="1"><g transform="translate(606.773625, 377.6729)"><g><path d="M 1.589844 -34.296875 C 9.3125 -5.90625 45.425781 2.269531 69.050781 2.269531 C 97.441406 2.269531 137.191406 -7.722656 137.191406 -43.835938 C 137.191406 -79.953125 103.121094 -81.316406 71.546875 -84.265625 C 49.289062 -85.855469 30.210938 -87.675781 30.210938 -102.4375 C 30.210938 -118.335938 54.738281 -122.652344 67.003906 -122.652344 C 80.859375 -122.652344 101.300781 -120.835938 106.753906 -106.753906 C 108.570312 -102.664062 113.339844 -100.394531 118.335938 -100.394531 C 126.058594 -100.394531 133.78125 -106.753906 131.285156 -115.15625 C 120.609375 -140.144531 90.398438 -146.957031 66.777344 -146.957031 C 38.386719 -146.957031 2.953125 -133.78125 2.953125 -102.664062 C 2.953125 -68.140625 38.160156 -63.824219 69.050781 -61.328125 C 89.265625 -59.738281 109.933594 -57.917969 109.933594 -43.609375 C 109.933594 -25.667969 84.949219 -21.578125 69.050781 -21.578125 C 53.832031 -21.578125 32.933594 -24.984375 27.9375 -39.75 C 26.800781 -45.652344 21.351562 -48.605469 15.445312 -48.605469 C 7.496094 -48.605469 -0.679688 -43.15625 1.589844 -34.296875 Z M 1.589844 -34.296875 "/></g></g></g><g fill="#272727" fill-opacity="1"><g transform="translate(764.175937, 377.6729)"><g><path d="M 71.546875 -42.472656 L 29.527344 -134.464844 C 26.347656 -141.503906 21.578125 -144.683594 15.671875 -144.683594 C 7.269531 -144.683594 -0.679688 -136.054688 4.089844 -125.605469 L 58.375 -7.496094 C 60.417969 -2.269531 64.960938 0 70.183594 0 C 75.636719 0 81.085938 -2.726562 83.132812 -7.042969 L 124.925781 -90.398438 L 167.171875 -7.042969 C 169.671875 -1.816406 173.757812 0 178.984375 0 C 184.207031 0 189.203125 -2.5 191.476562 -7.496094 L 246.667969 -126.515625 C 251.667969 -137.417969 242.355469 -144.683594 234.402344 -144.683594 C 228.5 -144.683594 223.726562 -141.050781 221.230469 -135.601562 L 178.753906 -42.472656 L 137.417969 -124.925781 C 134.917969 -129.46875 129.695312 -131.964844 124.699219 -131.964844 C 119.472656 -131.964844 114.929688 -129.46875 112.886719 -124.46875 Z M 71.546875 -42.472656 "/></g></g></g><g fill="#272727" fill-opacity="1"><g transform="translate(1040.593752, 377.6729)"><g><path d="M 74.273438 -146.957031 C 68.367188 -146.957031 64.734375 -145.59375 62.460938 -140.597656 L -2.269531 -13.855469 C -6.359375 -4.996094 2.5 2.269531 10.449219 2.269531 C 14.765625 2.269531 19.535156 0.453125 21.804688 -4.316406 L 37.703125 -35.886719 L 110.84375 -35.886719 L 126.742188 -4.316406 C 129.011719 0 134.011719 2.269531 138.324219 2.269531 C 146.957031 2.269531 156.042969 -4.542969 150.136719 -14.535156 L 85.855469 -140.597656 C 83.585938 -145.140625 79.042969 -146.957031 74.273438 -146.957031 Z M 74.273438 -108.570312 L 99.710938 -57.917969 L 48.835938 -57.917969 Z M 74.273438 -108.570312 "/></g></g></g><g fill="#272727" fill-opacity="1"><g transform="translate(1209.579624, 377.6729)"><g><path d="M 39.292969 -40.203125 L 72 -40.203125 C 110.160156 -40.203125 132.421875 -60.644531 132.421875 -91.308594 C 132.421875 -123.335938 110.386719 -144.683594 72.683594 -144.683594 L 26.347656 -144.683594 C 19.078125 -144.683594 13.175781 -139.914062 13.175781 -132.875 L 13.175781 -11.355469 C 13.175781 -3.859375 19.535156 0 26.121094 0 C 32.480469 0 39.292969 -3.632812 39.292969 -11.582031 Z M 39.292969 -122.199219 L 72.910156 -122.199219 C 94.488281 -122.199219 106.527344 -109.933594 106.527344 -91.308594 C 106.527344 -74.046875 94.261719 -62.6875 72 -62.6875 L 39.292969 -62.6875 Z M 39.292969 -122.199219 "/></g></g></g><g fill="#272727" fill-opacity="1"><g transform="translate(574.397441, 589.109203)"><g><path d="M 1.589844 -34.296875 C 9.3125 -5.90625 45.425781 2.269531 69.050781 2.269531 C 97.441406 2.269531 137.191406 -7.722656 137.191406 -43.835938 C 137.191406 -79.953125 103.121094 -81.316406 71.546875 -84.265625 C 49.289062 -85.855469 30.210938 -87.675781 30.210938 -102.4375 C 30.210938 -118.335938 54.738281 -122.652344 67.003906 -122.652344 C 80.859375 -122.652344 101.300781 -120.835938 106.753906 -106.753906 C 108.570312 -102.664062 113.339844 -100.394531 118.335938 -100.394531 C 126.058594 -100.394531 133.78125 -106.753906 131.285156 -115.15625 C 120.609375 -140.144531 90.398438 -146.957031 66.777344 -146.957031 C 38.386719 -146.957031 2.953125 -133.78125 2.953125 -102.664062 C 2.953125 -68.140625 38.160156 -63.824219 69.050781 -61.328125 C 89.265625 -59.738281 109.933594 -57.917969 109.933594 -43.609375 C 109.933594 -25.667969 84.949219 -21.578125 69.050781 -21.578125 C 53.832031 -21.578125 32.933594 -24.984375 27.9375 -39.75 C 26.800781 -45.652344 21.351562 -48.605469 15.445312 -48.605469 C 7.496094 -48.605469 -0.679688 -43.15625 1.589844 -34.296875 Z M 1.589844 -34.296875 "/></g></g></g><g fill="#272727" fill-opacity="1"><g transform="translate(731.799754, 589.109203)"><g><path d="M 26.800781 -144.683594 C 20.214844 -144.683594 13.855469 -139.6875 13.855469 -131.738281 L 13.855469 -11.8125 C 13.855469 -3.859375 20.441406 0 27.027344 0 C 33.390625 0 40.203125 -3.859375 40.203125 -11.8125 L 40.203125 -88.128906 L 73.59375 -36.113281 C 76.089844 -31.570312 81.316406 -28.847656 85.855469 -28.847656 C 90.398438 -28.847656 95.167969 -30.890625 97.667969 -35.433594 L 131.511719 -88.355469 L 131.511719 -11.8125 C 131.511719 -3.859375 137.871094 0 144.457031 0 C 150.816406 0 157.859375 -3.859375 157.859375 -11.8125 L 157.859375 -131.964844 C 157.859375 -140.144531 151.726562 -144.683594 145.140625 -144.683594 C 140.824219 -144.683594 136.054688 -142.640625 133.101562 -138.097656 L 85.855469 -63.597656 L 38.386719 -137.871094 C 35.660156 -142.1875 31.117188 -144.683594 26.800781 -144.683594 Z M 26.800781 -144.683594 "/></g></g></g><g fill="#272727" fill-opacity="1"><g transform="translate(924.634155, 589.109203)"><g><path d="M 74.273438 -146.957031 C 68.367188 -146.957031 64.734375 -145.59375 62.460938 -140.597656 L -2.269531 -13.855469 C -6.359375 -4.996094 2.5 2.269531 10.449219 2.269531 C 14.765625 2.269531 19.535156 0.453125 21.804688 -4.316406 L 37.703125 -35.886719 L 110.84375 -35.886719 L 126.742188 -4.316406 C 129.011719 0 134.011719 2.269531 138.324219 2.269531 C 146.957031 2.269531 156.042969 -4.542969 150.136719 -14.535156 L 85.855469 -140.597656 C 83.585938 -145.140625 79.042969 -146.957031 74.273438 -146.957031 Z M 74.273438 -108.570312 L 99.710938 -57.917969 L 48.835938 -57.917969 Z M 74.273438 -108.570312 "/></g></g></g><g fill="#272727" fill-opacity="1"><g transform="translate(1093.620027, 589.109203)"><g><path d="M 131.058594 -22.257812 L 103.800781 -50.878906 C 126.96875 -57.464844 138.324219 -74.273438 138.324219 -95.625 C 138.324219 -122.878906 117.65625 -144.683594 77 -144.683594 L 26.347656 -144.683594 C 18.625 -144.683594 13.175781 -139.914062 13.175781 -132.875 L 13.175781 -11.582031 C 13.175781 -4.089844 19.535156 0 26.347656 0 C 32.707031 0 39.523438 -4.089844 39.523438 -11.8125 L 39.523438 -47.699219 L 73.820312 -47.699219 L 114.476562 -4.316406 C 125.832031 7.949219 144.914062 -7.722656 131.058594 -22.257812 Z M 39.523438 -69.730469 L 39.523438 -121.746094 L 77.226562 -121.746094 C 98.578125 -121.746094 111.523438 -110.386719 111.75 -95.398438 C 112.203125 -81.542969 101.53125 -69.730469 77.226562 -69.730469 Z M 39.523438 -69.730469 "/></g></g></g><g fill="#272727" fill-opacity="1"><g transform="translate(1253.520745, 589.109203)"><g><path d="M 117.65625 -144.683594 L 7.042969 -144.683594 C -1.816406 -144.683594 -5.679688 -138.78125 -5.679688 -132.875 C -5.679688 -127.195312 -1.816406 -121.289062 7.042969 -121.289062 L 49.0625 -121.289062 L 49.0625 -12.039062 C 49.0625 -3.859375 55.875 0 62.234375 0 C 68.140625 0 75.636719 -3.859375 75.636719 -12.039062 L 75.410156 -121.289062 L 117.65625 -121.289062 C 126.289062 -121.289062 131.058594 -127.195312 131.058594 -132.875 C 131.058594 -138.78125 126.289062 -144.683594 117.65625 -144.683594 Z M 117.65625 -144.683594 "/></g></g></g><path fill="#8c52ff" d="M 69.980469 485.996094 C 75.835938 513.238281 100.179688 532.941406 128.066406 532.941406 L 422.207031 532.941406 C 450.09375 532.941406 474.4375 513.238281 480.292969 485.996094 L 549.320312 162.308594 C 551.015625 154.152344 558.257812 148.304688 566.578125 148.304688 L 640.382812 148.304688 C 647.625 148.304688 653.480469 142.457031 653.480469 135.222656 C 653.480469 127.988281 647.625 122.136719 640.382812 122.136719 L 566.578125 122.136719 C 545.933594 122.136719 527.90625 136.761719 523.589844 156.921875 L 480.757812 358.089844 L 184.921875 358.089844 L 232.996094 310.070312 C 238.082031 304.992188 238.082031 296.679688 232.996094 291.601562 C 227.910156 286.519531 219.589844 286.519531 214.507812 291.601562 L 144.089844 361.941406 C 139.007812 367.019531 139.007812 375.332031 144.089844 380.410156 L 214.351562 450.59375 C 216.972656 453.210938 220.207031 454.441406 223.597656 454.441406 C 226.988281 454.441406 230.375 453.210938 232.839844 450.59375 C 237.925781 445.515625 237.925781 437.203125 232.839844 432.125 L 184.769531 384.101562 L 474.902344 384.101562 L 454.410156 480.609375 C 451.171875 495.847656 437.613281 506.773438 422.050781 506.773438 L 127.914062 506.773438 C 112.351562 506.773438 98.792969 495.691406 95.554688 480.609375 L 47.636719 255.738281 C 46.558594 250.503906 47.792969 245.117188 51.179688 240.960938 C 54.570312 236.804688 59.65625 234.34375 64.894531 234.34375 L 394.164062 234.34375 L 346.089844 282.363281 C 341.003906 287.445312 341.003906 295.753906 346.089844 300.835938 C 348.710938 303.453125 351.945312 304.683594 355.335938 304.683594 C 358.726562 304.683594 362.113281 303.453125 364.578125 300.835938 L 434.996094 230.496094 C 437.460938 228.03125 438.847656 224.648438 438.847656 221.261719 C 438.847656 217.875 437.460938 214.488281 434.996094 212.027344 L 364.578125 141.6875 C 359.496094 136.605469 351.175781 136.605469 346.089844 141.6875 C 341.003906 146.765625 341.003906 155.078125 346.089844 160.15625 L 394.164062 208.175781 L 65.046875 208.175781 C 51.796875 208.175781 39.316406 214.179688 30.84375 224.492188 C 22.367188 234.804688 19.285156 248.195312 22.058594 261.277344 Z M 69.980469 485.996094 " fill-opacity="1" fill-rule="nonzero"/><path fill="#ff66c4" d="M 98.175781 624.675781 C 98.175781 658.84375 126.0625 686.703125 160.269531 686.703125 C 194.476562 686.703125 222.363281 658.84375 222.363281 624.675781 C 222.363281 590.503906 194.476562 562.644531 160.269531 562.644531 C 126.0625 562.644531 98.175781 590.503906 98.175781 624.675781 Z M 196.171875 624.675781 C 196.171875 644.375 180.144531 660.535156 160.269531 660.535156 C 140.394531 660.535156 124.371094 644.53125 124.371094 624.675781 C 124.371094 604.820312 140.394531 588.8125 160.269531 588.8125 C 180.144531 588.8125 196.171875 604.972656 196.171875 624.675781 Z M 196.171875 624.675781 " fill-opacity="1" fill-rule="nonzero"/><path fill="#ff66c4" d="M 327.601562 624.675781 C 327.601562 658.84375 355.488281 686.703125 389.695312 686.703125 C 423.902344 686.703125 451.789062 658.84375 451.789062 624.675781 C 451.789062 590.503906 423.902344 562.644531 389.695312 562.644531 C 355.488281 562.644531 327.601562 590.503906 327.601562 624.675781 Z M 425.59375 624.675781 C 425.59375 644.375 409.570312 660.535156 389.695312 660.535156 C 369.820312 660.535156 353.792969 644.53125 353.792969 624.675781 C 353.792969 604.820312 369.820312 588.8125 389.695312 588.8125 C 409.570312 588.8125 425.59375 604.972656 425.59375 624.675781 Z M 425.59375 624.675781 " fill-opacity="1" fill-rule="nonzero"/></svg>